# xmcd
#
# Track frame offsets: 
#        150
#        13471
#        25321
#        43558
#        56287
#        71969
#        93746
#        115142
#        131836
#        148008
#        160367
#        179778
#        194339
#        209475
#        226655
#
# Disc length: 3258 seconds
#
# Revision: 3
# Processed by: cddbd v1.5.2PL0 Copyright (c) Steve Scherf et al.
# Submitted via: ExactAudioCopy v1.0b3
#
DISCID=e60cb80f
DTITLE=Garth Brooks - Double Live 1-3
DYEAR=2014
DGENRE=Country
TTITLE0=Callin' Baton Rouge [Live]
TTITLE1=Two of a Kind, Workin' On a Full House [Live]
TTITLE2=Shameless [Live]
TTITLE3=Papa Loved Mama [Live]
TTITLE4=More Than a Memory [Live]
TTITLE5=The Thunder Rolls [Live]
TTITLE6=We Shall Be Free [Live]
TTITLE7=Unanswered Prayers [Live]
TTITLE8=Standing Outside the Fire [Live]
TTITLE9=Longneck Bottle [Live]
TTITLE10=It's Your Song [Live]
TTITLE11=Much Too Young (To Feel This Damn Old) [Live]
TTITLE12=Workin' for Livin' [Live]
TTITLE13=The River [Live]
TTITLE14=Tearin' It Up (And Burnin' It Down) [Live]
EXTD=
EXTT0=
EXTT1=
EXTT2=
EXTT3=
EXTT4=
EXTT5=
EXTT6=
EXTT7=
EXTT8=
EXTT9=
EXTT10=
EXTT11=
EXTT12=
EXTT13=
EXTT14=
PLAYORDER=
